<?xml version="1.0" encoding="UTF-8" standalone="no"?>
<!DOCTYPE svg PUBLIC "-//W3C//DTD SVG 1.1//EN" "http://www.w3.org/Graphics/SVG/1.1/DTD/svg11.dtd">
<svg width="100%" height="100%" viewBox="0 0 570 90" version="1.1" xmlns="http://www.w3.org/2000/svg" xmlns:xlink="http://www.w3.org/1999/xlink" xml:space="preserve" xmlns:serif="http://www.serif.com/" style="fill-rule:evenodd;clip-rule:evenodd;stroke-linejoin:round;stroke-miterlimit:2;">
    <g transform="matrix(0.0434454,0,0,0.0434454,196.306,6.63477)">
        <path d="M245.545,14.031C251.892,7.625 270.888,2.352 273.5,2.5C278.107,2.76 282.758,1.225 287.328,1.866C307.218,4.654 332.824,21.113 333.441,43.565C333.646,51.034 327.564,66.179 326.566,71.075C325.084,78.337 327.518,82.725 326.5,90C325.922,94.134 323.254,92.73 322.248,96.741C319.868,106.223 317.625,115.789 316.5,125.5C316.276,127.431 316.991,129.594 318.272,131.057C319.538,132.505 322.037,132.252 323.5,133.5C325.814,135.474 325.49,139.728 329.031,140.767C331.473,141.484 334.186,141.247 336.666,140.673C344.829,138.783 342.169,129.055 344,123.5C345.347,119.412 348.263,115.989 349.838,111.984C353.333,103.099 355.697,93.798 359.18,84.908C365.891,67.777 373.349,48.759 388,36.5C391.081,33.922 394.945,32.442 398.235,30.136C403.48,26.461 406.621,21.781 413.387,20.495C418.339,19.554 423.508,20.699 428.5,20C433.004,19.369 437.698,14.704 442.582,17.09C448.041,19.756 447.655,21.564 452.5,25C462.767,32.281 463.804,30.872 473.333,39.142C479.08,44.13 479.259,52.529 482.638,58.783C484.75,62.692 489.322,64.217 491,68.5C494.64,77.789 493.198,84.044 496,93.5C497.038,97.005 499.791,99.914 500.5,103.5C503.201,117.161 500.082,117.187 501.635,128.712C502.652,136.259 506.024,143.806 506,144.5C505.817,149.833 506.706,155.168 506.5,160.5C506.356,164.218 503.508,165.231 505.641,169.175C507.743,173.062 510.332,171.549 513.5,173.5C520.845,178.022 520.9,180.076 527.233,185.734C529.243,187.528 533.855,189.714 535,192.5C538.629,201.327 541.369,210.501 544.139,219.634C547.433,230.492 548.519,244.056 555.338,253.784C560.439,261.061 569.849,259.434 575.725,265.369C580.839,270.534 579.623,272.603 583.5,278.5C585.16,281.026 590.313,285.954 591.611,289.652C596.236,302.839 578.046,319.355 572,327.5C569.866,330.375 573.722,333.195 573.5,336C573.416,337.064 571.818,337.481 571.5,338.5C568.726,347.396 571.205,347.946 567.5,356.5C563.505,365.723 551.972,378.635 561.969,388.792C571.077,398.047 592.337,391.133 601.5,390.5C602.871,390.405 604.151,391.762 605.5,391.5C621.454,388.402 637.023,383.479 653,380.5C656.768,379.797 660.667,380.479 664.5,380.5C674.351,380.553 684.215,380.222 694.053,380.722C705.792,381.319 718.891,382.776 728.592,390.278C736.807,396.631 738.99,407.202 740.441,416.868C742.737,432.167 739.052,449.017 728.462,460.668C717.516,472.711 700.018,478.423 691.5,492.998L104.5,492.998C104.849,491.244 102.511,475.234 101.5,474.5C96.858,471.132 92.427,467.435 87.5,464.5C75.935,457.61 73.855,459.829 62.5,452.5C55.201,447.789 47.366,439.225 40.5,434C35.196,429.964 20.956,421.813 16.186,417.012C1.485,402.214 -0.531,381.091 2.5,361.5C3.403,355.665 9.887,352.698 12.883,348.358C15.427,344.672 12.477,343.536 15.5,340C17.021,338.22 21.852,336.836 23.941,336.379C27.669,335.564 31.389,334.58 35.192,334.262C46.106,333.35 56.148,339.6 66.184,342.421C71.606,343.945 74.223,342.05 79.5,344.5C90.723,349.711 101.541,355.755 112.5,361.5C116.45,363.571 123.393,369.622 128.275,365.01C130.008,363.372 129.812,359.995 129.5,358C127.802,347.145 126.383,336.226 124,325.5C123.87,324.913 122.697,321.204 122.383,318.584C122.118,316.377 120.421,316.866 120.5,314.5C120.541,313.287 121.666,312.202 121.5,311C120.316,302.419 117.747,294.072 116.5,285.5C116.393,284.762 117.524,284.245 117.5,283.5C116.446,250.27 110.269,215.919 122.539,183.92C127.151,171.894 135.29,159.941 148.159,155.828C154.374,153.842 162.489,155.162 168.002,150.749C176.074,144.288 183.318,136.822 191.5,130.5C192.588,129.66 194.342,130.24 195.5,129.5C207.032,122.137 206.208,119.669 217.5,112C220.976,109.639 225.034,108.234 228.558,105.945C241.279,97.683 226.552,81.635 226.681,70.997C226.785,62.366 230.536,58.698 232.763,50.703C234.513,44.421 235.38,37.921 237.005,31.606C238.653,25.199 240.725,18.897 245.545,14.031Z"/>
    </g>
    <g transform="matrix(0.864367,0,0,1,-630.825,-1647.7)">
        <text x="1049.23px" y="1725.03px" style="font-family:'Impact', sans-serif;font-stretch:condensed;font-size:58.333px;">ture At A Time</text>
    </g>
    <g id="Van-Silhoutte" serif:id="Van Silhoutte" transform="matrix(0.138309,0,0,0.141361,37.4368,-176.719)">
        <path d="M928.004,1799.23C934.308,1833.47 964.485,1859.35 1000.56,1859.35C1035.63,1859.35 1065.12,1834.89 1072.53,1802.06L1498.76,1802.06C1506.17,1834.89 1535.66,1859.35 1570.74,1859.35C1605.81,1859.35 1635.3,1834.89 1642.71,1802.06C1642.71,1802.06 1692.13,1802.06 1692.13,1802.06C1697.78,1802.06 1703.21,1799.88 1707.67,1794.71C1711.72,1790.02 1715.41,1780.68 1716.61,1768.65C1718.48,1749.84 1715.35,1723.55 1706.21,1705.5C1700.33,1693.88 1692.02,1685.49 1681.81,1681.71C1679.67,1676.03 1676.12,1670.29 1671.25,1664.78C1656.68,1648.27 1629.72,1633.13 1607,1626.99C1587.24,1611.57 1524.53,1546.35 1476.06,1507.69C1462.15,1496.59 1449.29,1487.59 1438.75,1482.11C1429.43,1477.27 1421.29,1475.05 1415.11,1475.05C1411.72,1475.05 1404.51,1475.05 1404.51,1475.05L1404.51,1448.46L908.488,1448.46L908.488,1475.06C908.488,1475.06 895.369,1475.06 890.902,1475.06C878.472,1475.06 867.408,1483.05 863.73,1494.93C863.712,1494.99 863.695,1495.04 863.678,1495.1C857.902,1514.6 846.166,1563.27 846.166,1638.94L846.166,1701.54C844.619,1703.77 843.342,1706.54 842.471,1709.93C838.848,1724.02 843.469,1760.62 845.595,1774.02C845.597,1774.04 845.6,1774.06 845.603,1774.07C847.051,1782.99 854.028,1789.95 862.906,1791.6C862.99,1791.62 863.073,1791.63 863.157,1791.64C872.43,1793.21 895.344,1796.72 928.004,1799.23Z"/>
    </g>
    <g id="VAN" transform="matrix(0.945265,0,-0.125146,0.844128,-619.238,-1382.25)">
        <path d="M1080.1,1678.91L1074.01,1725.03L1055.81,1725.03L1048.88,1678.91L1061.53,1678.91C1062.99,1691.62 1064.04,1702.35 1064.66,1711.13C1065.29,1702.26 1065.95,1694.38 1066.63,1687.49L1067.46,1678.91L1080.1,1678.91Z" style="fill:white;fill-rule:nonzero;"/>
        <path d="M1102.09,1678.91L1108.96,1725.03L1096.68,1725.03L1096.08,1716.74L1091.78,1716.74L1091.07,1725.03L1078.65,1725.03L1084.75,1678.91L1102.09,1678.91ZM1095.74,1708.56C1095.13,1703.34 1094.53,1696.89 1093.92,1689.22C1092.7,1698.03 1091.94,1704.48 1091.64,1708.56L1095.74,1708.56Z" style="fill:white;fill-rule:nonzero;"/>
        <path d="M1127.76,1679.45C1132.04,1681.88 1137.78,1687.59 1137.78,1687.59L1137.78,1725.03L1127.27,1725.03L1121.03,1704.06L1121.03,1725.03L1111.01,1725.03L1111.01,1678.91L1121.03,1678.91L1127.76,1699.68C1127.76,1699.68 1127.79,1684.95 1127.76,1679.45Z" style="fill:white;fill-rule:nonzero;"/>
    </g>
    <g transform="matrix(0.864367,0,0,1,-896.289,-1647.99)">
        <text x="1049.23px" y="1725.03px" style="font-family:'Impact', sans-serif;font-stretch:condensed;font-size:58.333px;">One Ad</text>
    </g>
    <g transform="matrix(0.0231714,0,0,0.0231714,183.943,8.15674)">
        <path d="M681.5,320.5C669.995,314.524 666.723,335.413 664,340.5C661.521,345.131 657.728,344.864 653.895,347.576C649.439,350.729 649.858,357.055 646.5,361C642.205,366.046 635.439,365.241 631.644,371.395C625.719,381.001 627.886,395.156 626,405.5C625.167,410.066 620.015,424.758 619.476,431.632C618.571,443.178 624.751,451.704 627.445,462.437C630.89,476.158 631.308,482.884 629.456,496.914C627.455,512.077 617.845,524.847 612,538.5C602.464,560.773 601.086,559.954 589.912,581.41C582.009,596.585 582.516,615.51 578,631.5C575.206,641.394 571.433,651.001 567.5,660.5C563.114,671.092 560.047,670.24 557,681.5C550.094,707.019 544.346,732.836 538,758.5C534.857,771.209 529.639,785.117 533,798.5C538.545,820.58 556.457,843.382 536.063,863.253L349.563,863.253C345.72,854.951 344.36,855.03 340.336,846.815C336.323,838.621 324.512,817.593 323.138,814.904C319.347,807.483 314.171,800.808 310.568,793.294C306.37,784.542 308.745,781.673 307,772.5C305.985,767.167 303.062,764.558 302.566,759.055C301.613,748.488 309.369,739.665 312.977,730.568C315.351,724.58 317.186,718.378 318.807,712.143C323.165,695.372 321.935,677.357 319.885,660.419C318.105,645.71 308.898,635.368 299.5,624.5C296.946,621.546 291.328,615.422 286.321,617.74C275.703,622.655 272.481,633.107 269,643.5C264.898,655.747 261.113,668.1 257.5,680.5C253.116,695.543 249.275,710.74 245.011,725.817C241.04,739.862 234.912,756.811 233.5,771.5C233.298,773.599 237.694,787.125 237.5,792C236.988,804.862 230.615,817.556 232.694,830.64C233.883,838.12 238.191,844.941 238.993,852.472C239.482,857.067 237.689,856.289 238.449,860.847L198,860.847C198.595,857.477 200.849,857.165 201.274,853.77C201.699,850.363 200.298,846.927 200.5,843.5C200.789,838.596 204.286,828.002 204.127,823.019C203.907,816.127 201.969,809.379 201.5,802.5C200.949,794.418 201.639,775.5 203,767.5C203.827,762.637 206.914,760.984 208.5,756.5C211.167,748.963 213.229,739.583 212,731.5C210.054,718.703 207.354,706.002 204,693.5C203.634,692.134 199.398,684.853 198.225,682.172C197.294,680.045 198.236,639.293 195.5,621.722C194.699,616.577 192.742,611.653 192,606.5C190.904,598.883 191.363,591.074 190,583.5C189.811,582.45 184.49,578.19 182.553,577.158C175.032,573.149 166.805,575.335 158.905,573.43C150.585,571.424 150.219,566.276 143.5,563C122.754,552.886 113.565,551.352 92.5,542C88.662,540.296 81.628,536.629 83.278,531.006C86.278,520.781 106.424,526.226 111.574,526.659C118.062,527.205 128.173,526.87 134.5,529C149.125,533.923 167.114,548.317 181.865,535.314C192.849,525.631 193.557,506.137 196.872,493.883C201.537,476.633 210.936,457.002 225.613,445.992C233.501,440.074 256.328,426.657 257.5,426C280.064,413.363 301.205,396.676 325.841,387.818C340.588,382.516 355.857,378.732 370.559,373.306C386.536,367.409 388.054,363.662 402.5,355C416.813,346.418 431.125,340.328 444.444,330.074C452.636,323.767 453.738,318.078 460.145,310.351C464.48,305.123 472.671,300.533 473.354,292.779C474.412,280.772 467.268,270.489 464,259.5C459.004,242.703 462.788,224.985 463.5,208C463.8,200.834 462.062,199.687 463,192.5C464.409,181.708 471.471,172.899 479.5,166C486.099,160.33 493.261,155.326 500.5,150.5C501.344,149.938 502.677,150.593 503.5,150C514.13,142.343 523.381,130.903 536.5,127C545.825,124.226 553.817,131.278 563,130.5C573.711,129.592 584.265,127.068 595,126.5C617.896,125.288 641.491,136.314 662.597,142.366C668.888,144.17 670.353,142.437 676.5,145C695.058,152.737 713.24,166.608 719.177,186.726C720.8,192.228 720.774,198.088 721.731,203.744C724.32,219.027 726.783,222.172 724.332,237.84C723.233,244.867 719.951,251.452 719,258.5C718.001,265.902 719.606,273.513 718.52,280.903C717.44,288.254 711.351,294.194 710,301.5C708.474,309.749 712.619,324.292 703.574,330.378C701.56,331.734 688.875,332.307 686.693,329.217C684.652,326.326 685.893,321.72 681.5,320.5ZM519.5,620.5C518.495,634.86 517.6,649.259 515.5,663.5C513.76,675.304 510.097,686.754 508,698.5C505.928,710.102 505.326,721.947 503,733.5C501.339,741.748 494.431,789.028 493.68,792.125C492.229,798.113 488.702,807.704 481.799,807.613C478.674,807.572 476.766,805.217 476,802.5C470.075,781.476 468.817,776.117 469.72,754.205C471.152,719.455 473.799,684.217 483,650.5C484.661,644.411 493.163,622.935 498.996,618.497C503.71,614.91 520.793,609.195 519.5,620.5ZM399.5,630.5C405.758,631.305 411.766,633.526 418,634.5C421.024,634.972 423.138,632.899 426.197,634.11C432.363,636.55 433.314,646.109 433.429,651.273C433.923,673.53 429.446,694.438 426.032,716.194C425.893,717.08 423.405,740.292 422.389,750.9C421.374,761.5 420.086,772.081 418.409,782.597C417.287,789.629 415.721,796.59 414,803.5C413.498,805.516 411.884,816.854 411.656,817.723C410.028,823.923 414.636,830.422 415.516,836.143C416.28,841.107 415.51,846.356 409.5,845.5C405.495,844.93 401.643,843.502 397.638,842.933C386.354,841.329 372.218,842.825 362.677,834.716C351.142,824.912 348.639,809.329 346.725,795.233C344.523,779.021 343.203,761.491 348,745.5C351.777,732.907 361.779,723.725 368,712.5C373.203,703.111 384.177,675.451 385.5,671.5C387.466,665.63 392.085,646.08 392.579,642.129C393.063,638.26 394.176,631.091 399.5,630.5Z"/>
    </g>
</svg>
