<?xml version="1.0" encoding="UTF-8" standalone="no"?>
<!DOCTYPE svg PUBLIC "-//W3C//DTD SVG 1.1//EN" "http://www.w3.org/Graphics/SVG/1.1/DTD/svg11.dtd">
<svg width="100%" height="100%" viewBox="0 0 975 975" version="1.1" xmlns="http://www.w3.org/2000/svg" xmlns:xlink="http://www.w3.org/1999/xlink" xml:space="preserve" xmlns:serif="http://www.serif.com/" style="fill-rule:evenodd;clip-rule:evenodd;stroke-linecap:round;stroke-linejoin:round;stroke-miterlimit:1.5;">
    <g transform="matrix(1,0,0,1,66.3987,316.625)">
        <path d="M99.49,454.503C103.183,499.671 141.059,535.227 187.175,535.227C231.304,535.227 267.889,502.667 274.195,460.275L670.314,460.275C676.621,502.667 713.205,535.227 757.335,535.227C801.464,535.227 838.049,502.667 844.355,460.275L879.17,460.275C885.529,460.275 892.374,457.513 897.39,449.388C901.007,443.529 904.214,431.685 905.285,416.662C907.397,387.034 902.633,343.665 889.97,320.259C884.905,310.896 878.507,304.232 871.27,300.434C868.477,288.876 862.183,277.078 853.416,266.206C838.275,247.432 815.991,231.379 796.687,223.886C776.649,201.814 714.271,111.138 665.997,57.264C649.449,38.796 634.24,24.465 622.632,17.411C614.813,12.659 607.762,10.7 602.152,10.7C475.221,10.7 142.23,10.7 78.791,10.717C65.119,10.717 53.171,19.961 49.738,33.2C49.686,33.398 49.639,33.597 49.595,33.797C44.185,58.346 31.606,126.893 31.606,236.021L31.606,326.785C29.819,329.734 28.403,333.423 27.618,337.978C24.166,358.032 29.347,409.772 31.189,425.671C31.191,425.687 31.193,425.703 31.195,425.719C32.32,435.194 39.137,443.013 48.371,445.417C48.489,445.448 48.608,445.478 48.727,445.506C56.501,447.349 74.227,451.197 99.49,454.503Z" style="fill-opacity:0.33;"/>
    </g>
    <g transform="matrix(1,0,0,1.39895,-796.558,-1820.15)">
        <path d="M865.528,1777.09C862.933,1776.61 861.018,1775.04 860.701,1773.13C858.523,1759.69 850.903,1708.4 861.229,1708.4L861.229,1638.94C861.229,1562.32 873.513,1514.18 878.827,1496.95C880.354,1492.74 885.669,1489.8 891.752,1489.8C955.19,1489.79 1288.18,1489.79 1415.11,1489.79C1451.49,1489.79 1575.89,1623.39 1600.31,1640.52C1629.71,1647.48 1669.17,1672.62 1669.17,1694.23C1706.66,1694.23 1708.82,1787.33 1692.13,1787.33L1002.38,1787.33C931.631,1787.33 880.245,1779.58 865.528,1777.09Z" style="fill:white;stroke:black;stroke-width:27.41px;"/>
    </g>
    <g transform="matrix(1.18177,0,0,1.54018,-1121.04,-2060.36)">
        <path d="M1405.12,1559.81L1422.27,1619.85C1426.8,1635.73 1440.68,1647.14 1457.13,1648.53C1486.12,1650.97 1534.96,1655.09 1558.5,1657.07C1563.2,1657.47 1567.66,1654.91 1569.69,1650.64C1571.72,1646.38 1570.89,1641.3 1567.62,1637.9C1553.71,1623.46 1527.1,1595.83 1506.92,1574.87C1488.82,1556.08 1463.86,1545.47 1437.77,1545.47L1415.93,1545.47C1412.4,1545.47 1409.08,1547.12 1406.95,1549.94C1404.83,1552.76 1404.15,1556.41 1405.12,1559.81Z"/>
    </g>
    <g transform="matrix(1,0,0,1,16.3987,236.625)">
        <path d="M655.153,389.985C662.72,350.052 678.845,313.594 712.503,313.594L856.18,313.594C856.203,314.107 856.214,314.618 856.214,315.126C893.703,315.126 895.867,447.07 879.17,447.07L189.418,447.07C118.978,447.07 67.729,437.053 52.763,433.755C50.06,433.099 47.964,430.3 47.523,426.76C45.107,406.883 47.523,331.785 47.523,331.785L234.295,331.785C260.049,331.785 273.467,361.436 280.282,389.985L655.153,389.985Z"/>
    </g>
    <g transform="matrix(1.31298,0,0,1.84981,-1286.55,-2564.47)">
        <path d="M1360.05,1576.49C1360.05,1567 1349.19,1559.3 1335.83,1559.3L1225.42,1559.3C1212.05,1559.3 1201.19,1567 1201.19,1576.49L1201.19,1610.88C1201.19,1620.37 1212.05,1628.07 1225.42,1628.07L1335.83,1628.07C1349.19,1628.07 1360.05,1620.37 1360.05,1610.88L1360.05,1576.49Z"/>
    </g>
    <g transform="matrix(2.00864,0,0,2.00864,-1804.92,-2923.19)">
        <circle cx="999.928" cy="1795.77" r="23.057" style="fill:white;"/>
        <path d="M999.928,1751.97C975.753,1751.97 956.126,1771.59 956.126,1795.77C956.126,1819.94 975.753,1839.57 999.928,1839.57C1024.1,1839.57 1043.73,1819.94 1043.73,1795.77C1043.73,1771.59 1024.1,1751.97 999.928,1751.97ZM999.928,1772.71C1012.65,1772.71 1022.99,1783.04 1022.99,1795.77C1022.99,1808.49 1012.65,1818.83 999.928,1818.83C987.202,1818.83 976.87,1808.49 976.87,1795.77C976.87,1783.04 987.202,1772.71 999.928,1772.71Z"/>
    </g>
    <g transform="matrix(2.00864,0,0,2.00864,-1234.76,-2923.19)">
        <circle cx="999.928" cy="1795.77" r="23.057" style="fill:white;"/>
        <path d="M999.928,1751.97C975.753,1751.97 956.126,1771.59 956.126,1795.77C956.126,1819.94 975.753,1839.57 999.928,1839.57C1024.1,1839.57 1043.73,1819.94 1043.73,1795.77C1043.73,1771.59 1024.1,1751.97 999.928,1751.97ZM999.928,1772.71C1012.65,1772.71 1022.99,1783.04 1022.99,1795.77C1022.99,1808.49 1012.65,1818.83 999.928,1818.83C987.202,1818.83 976.87,1808.49 976.87,1795.77C976.87,1783.04 987.202,1772.71 999.928,1772.71Z"/>
    </g>
</svg>
